<?xml version="1.0" encoding="UTF-8"?>
<svg id="Logomark" xmlns="http://www.w3.org/2000/svg" viewBox="0 0 500 301.92">
  <defs>
    <style>
      .cls-1 {
        fill: #4b97d1;
      }
    </style>
  </defs>
  <g>
    <path class="cls-1" d="M172.89,221.39h0c1.71-5.43,4.18-10.59,7.35-15.33h0c5.39-8.07,11.88-15.34,19.29-21.61h0c4.35-3.69,9.2-6.74,14.41-9.07h0c8.9-3.99,18.33-6.66,28-7.94l4.59-.61c2.87-.38,4.9-3.02,4.52-5.89L230.4,4.56c-.38-2.87-3.02-4.9-5.89-4.52l-14.93,1.97c-2.87.38-4.9,3.02-4.52,5.89l16.92,128.2c.49,3.75-4.7,5.22-6.24,1.77l-52.94-118.19c-1.19-2.65-4.29-3.83-6.94-2.65l-16.04,7.18c-2.65,1.19-3.83,4.29-2.65,6.94l50.5,112.75c1.18,2.64-2.31,4.84-4.18,2.63L103.56,52.13c-1.87-2.21-5.19-2.49-7.4-.61l-15.33,12.98c-2.21,1.87-2.49,5.19-.61,7.4l74.42,87.9c1.77,2.09-.84,5-3.11,3.48L55.63,99.17c-2.41-1.61-5.67-.96-7.28,1.45l-12.56,18.79c-1.61,2.41-.96,5.67,1.45,7.28l86.06,57.54c2.82,1.89.73,6.27-2.51,5.25l-98.94-31.1c-2.77-.87-5.71.67-6.58,3.43l-7.53,23.95c-.87,2.77.67,5.71,3.43,6.58l76.86,24.16c1.26.4.98,2.26-.35,2.26H5.25c-2.9,0-5.25,2.35-5.25,5.25v27.62c0,2.9,2.35,5.25,5.25,5.25h157.75c2.9,0,5.25-2.35,5.25-5.25h0c0-10.26,1.56-20.45,4.64-30.23Z"/>
    <rect class="cls-1" x="193.07" y="73.69" width="168.25" height="23.05" rx="5.25" ry="5.25" transform="translate(148.01 344.86) rotate(-80.64)"/>
    <rect class="cls-1" x="238.3" y="89.32" width="168.25" height="20.54" rx="5.25" ry="5.25" transform="translate(91.95 346.09) rotate(-64.09)"/>
    <rect class="cls-1" x="276.84" y="116.55" width="168.25" height="18.03" rx="5.25" ry="5.25" transform="translate(26.14 309.83) rotate(-48.01)"/>
    <rect class="cls-1" x="306.64" y="153.29" width="168.25" height="15.52" rx="5.25" ry="5.25" transform="translate(-25.96 231.6) rotate(-32.01)"/>
    <rect class="cls-1" x="325.61" y="197.49" width="168.25" height="13.01" rx="5.25" ry="5.25" transform="translate(-39.82 117.99) rotate(-15.64)"/>
    <path class="cls-1" d="M331.75,251.7h0c0,2.85,2.35,5.17,5.25,5.17h157.75c2.9,0,5.25-2.31,5.25-5.17h0c0-2.85-2.35-5.17-5.25-5.17h-157.75c-2.9,0-5.25,2.31-5.25,5.17Z"/>
  </g>
  <path class="cls-1" d="M251.26,293.6c-.74-.66-1.84-.66-2.59,0-6.81,6.05-14.45,8.31-19.97,8.31H5.11c-2.82,0-5.11-2.29-5.11-5.11v-18.28c0-2.82,2.29-5.11,5.11-5.11h489.78c2.82,0,5.11,2.29,5.11,5.11v18.28c0,2.82-2.29,5.11-5.11,5.11h-223.66c-5.46,0-13.15-2.26-19.97-8.31Z"/>
</svg>